<?xml version="1.0" encoding="utf-8"?>
<!-- Generator: Adobe Illustrator 16.0.0, SVG Export Plug-In . SVG Version: 6.00 Build 0)  -->
<!DOCTYPE svg PUBLIC "-//W3C//DTD SVG 1.1//EN" "http://www.w3.org/Graphics/SVG/1.1/DTD/svg11.dtd">
<svg version="1.1" id="Layer_1" xmlns="http://www.w3.org/2000/svg" xmlns:xlink="http://www.w3.org/1999/xlink" x="0px" y="0px"
	 width="11.199px" height="8px" viewBox="0 0 11.199 8" enable-background="new 0 0 11.199 8" xml:space="preserve">
<g>
	<path fill="#FFFFFF" d="M5.602,5.602L4.215,4.387L0.254,7.781C0.398,7.918,0.59,8,0.805,8h9.589c0.215,0,0.406-0.082,0.551-0.219
		L6.984,4.387L5.602,5.602z M5.602,5.602"/>
	<path fill="#FFFFFF" d="M10.945,0.219C10.805,0.082,10.609,0,10.395,0H0.805C0.594,0,0.398,0.082,0.254,0.219l5.348,4.582
		L10.945,0.219z M10.945,0.219"/>
	<path fill="#FFFFFF" d="M0,0.703v6.645l3.867-3.286L0,0.703z M0,0.703"/>
	<path fill="#FFFFFF" d="M7.332,4.062l3.867,3.286V0.699L7.332,4.062z M7.332,4.062"/>
</g>
</svg>
