<?xml version="1.0" encoding="utf-8"?>
<!-- Generator: Adobe Illustrator 16.0.0, SVG Export Plug-In . SVG Version: 6.00 Build 0)  -->
<!DOCTYPE svg PUBLIC "-//W3C//DTD SVG 1.1//EN" "http://www.w3.org/Graphics/SVG/1.1/DTD/svg11.dtd">
<svg version="1.1" id="Layer_1" xmlns="http://www.w3.org/2000/svg" xmlns:xlink="http://www.w3.org/1999/xlink" x="0px" y="0px"
	 width="12.96px" height="21.886px" viewBox="0 0 12.96 21.886" enable-background="new 0 0 12.96 21.886" xml:space="preserve">
<g>
	<g>
		<defs>
			<rect id="SVGID_1_" width="12.96" height="21.886"/>
		</defs>
		<clipPath id="SVGID_2_">
			<use xlink:href="#SVGID_1_"  overflow="visible"/>
		</clipPath>
		<path clip-path="url(#SVGID_2_)" fill="#FFFFFF" d="M10.836-0.114H1.598C0.715-0.114,0,0.605,0,1.484v18.758
			c0,0.883,0.715,1.598,1.598,1.598h9.238c0.883,0,1.598-0.715,1.598-1.598V1.484C12.434,0.605,11.719-0.114,10.836-0.114
			L10.836-0.114z M3.938,0.859h4.558c0.117,0,0.211,0.172,0.211,0.383c0,0.215-0.094,0.387-0.211,0.387H3.938
			c-0.118,0-0.208-0.172-0.208-0.387C3.73,1.031,3.82,0.859,3.938,0.859L3.938,0.859z M6.219,20.261
			c-0.563,0-1.024-0.457-1.024-1.019c0-0.563,0.461-1.021,1.024-1.021c0.559,0,1.016,0.457,1.016,1.021
			C7.234,19.804,6.777,20.261,6.219,20.261L6.219,20.261z M11.234,16.765H1.199V2.586h10.035V16.765z M11.234,16.765"/>
	</g>
</g>
</svg>
