<?xml version="1.0" encoding="utf-8"?>
<!-- Generator: Adobe Illustrator 16.0.0, SVG Export Plug-In . SVG Version: 6.00 Build 0)  -->
<!DOCTYPE svg PUBLIC "-//W3C//DTD SVG 1.1//EN" "http://www.w3.org/Graphics/SVG/1.1/DTD/svg11.dtd">
<svg version="1.1" id="Layer_1" xmlns="http://www.w3.org/2000/svg" xmlns:xlink="http://www.w3.org/1999/xlink" x="0px" y="0px"
	 width="370.879px" height="238.561px" viewBox="0 0 370.879 238.561" enable-background="new 0 0 370.879 238.561"
	 xml:space="preserve">
<title>Asset 1</title>
<g id="Layer_2">
	<g id="Capa_1">
		<path fill="#FFFFFF" d="M355.6,0H15.28C6.841,0,0,6.841,0,15.28v208c0,8.438,6.841,15.28,15.28,15.28H355.6
			c8.439,0,15.279-6.842,15.279-15.28v-208C370.879,6.841,364.04,0,355.6,0z M358.879,204.72l-125-98.561l125-77.44V204.72z
			 M15.28,12H355.6c1.436,0.008,2.699,0.947,3.119,2.32L185.44,122.56L12.16,14.32C12.58,12.947,13.844,12.008,15.28,12z M12,28
			l124.64,77.84L12,204.72V28z M355.6,226.48H15.28c-1.811,0-3.28-1.469-3.28-3.28V220l135.44-107l34.8,21.76
			c1.955,1.233,4.444,1.233,6.4,0l34.8-21.76l135.439,107v3.2C358.879,225.011,357.411,226.48,355.6,226.48z"/>
	</g>
</g>
</svg>
