<?xml version="1.0" encoding="utf-8"?>
<!-- Generator: Adobe Illustrator 16.0.0, SVG Export Plug-In . SVG Version: 6.00 Build 0)  -->
<!DOCTYPE svg PUBLIC "-//W3C//DTD SVG 1.1//EN" "http://www.w3.org/Graphics/SVG/1.1/DTD/svg11.dtd">
<svg version="1.1" id="Layer_1" xmlns="http://www.w3.org/2000/svg" xmlns:xlink="http://www.w3.org/1999/xlink" x="0px" y="0px"
	 width="378.494px" height="379.043px" viewBox="0 0 378.494 379.043" enable-background="new 0 0 378.494 379.043"
	 xml:space="preserve">
<g>
	<defs>
		<rect id="SVGID_1_" width="378.494" height="379.043"/>
	</defs>
	<clipPath id="SVGID_2_">
		<use xlink:href="#SVGID_1_"  overflow="visible"/>
	</clipPath>
	<path clip-path="url(#SVGID_2_)" fill="#FFFFFF" d="M299.289,234.805c-7.761-8.078-17.121-12.397-27.039-12.397
		c-9.84,0-19.28,4.238-27.358,12.319l-25.281,25.199c-2.082-1.121-4.16-2.16-6.16-3.199c-2.879-1.44-5.602-2.801-7.922-4.241
		c-23.68-15.039-45.2-34.642-65.84-60c-10-12.642-16.719-23.282-21.598-34.079c6.558-6,12.64-12.243,18.558-18.243
		c2.243-2.238,4.481-4.558,6.723-6.8c16.797-16.797,16.797-38.559,0-55.36l-21.844-21.84c-2.476-2.48-5.039-5.039-7.437-7.597
		c-4.801-4.961-9.84-10.082-15.039-14.883c-7.762-7.68-17.043-11.758-26.801-11.758c-9.762,0-19.199,4.078-27.199,11.758l-0.16,0.16
		L17.688,61.286C7.45,71.524,1.609,84.004,0.328,98.485c-1.918,23.359,4.961,45.121,10.242,59.359
		c12.957,34.961,32.321,67.359,61.2,102.082c35.039,41.84,77.199,74.879,125.358,98.16c18.399,8.719,42.961,19.039,70.399,20.797
		c1.683,0.082,3.441,0.16,5.043,0.16c18.479,0,34-6.636,46.16-19.84c0.078-0.16,0.238-0.238,0.319-0.398
		c4.16-5.039,8.957-9.602,14-14.479c3.438-3.282,6.957-6.72,10.399-10.321c7.921-8.238,12.078-17.84,12.078-27.679
		c0-9.918-4.239-19.442-12.317-27.442L299.289,234.805z M327.931,319.043C327.849,319.043,327.849,319.125,327.931,319.043
		c-3.121,3.364-6.32,6.403-9.763,9.762c-5.198,4.961-10.479,10.16-15.437,16c-8.082,8.642-17.603,12.719-30.082,12.719
		c-1.199,0-2.481,0-3.68-0.077c-23.759-1.521-45.841-10.802-62.398-18.72c-45.282-21.922-85.044-53.043-118.083-92.48
		c-27.277-32.882-45.519-63.281-57.597-95.921c-7.441-19.918-10.161-35.442-8.961-50.079c0.8-9.363,4.398-17.121,11.039-23.761
		L60.25,49.203c3.918-3.679,8.078-5.679,12.16-5.679c5.04,0,9.117,3.043,11.68,5.601l0.238,0.239
		c4.883,4.562,9.52,9.281,14.402,14.32c2.481,2.562,5.04,5.121,7.598,7.762l21.84,21.84c8.48,8.48,8.48,16.32,0,24.8
		c-2.32,2.321-4.559,4.641-6.879,6.879c-6.719,6.879-13.121,13.281-20.078,19.52c-0.16,0.16-0.32,0.242-0.402,0.398
		c-6.879,6.883-5.598,13.602-4.161,18.16l0.243,0.723c5.679,13.758,13.679,26.719,25.839,42.16l0.079,0.078
		c22.082,27.199,45.359,48.403,71.04,64.641c3.28,2.082,6.641,3.763,9.84,5.359c2.883,1.442,5.601,2.801,7.922,4.242
		c0.32,0.161,0.64,0.398,0.961,0.559c2.718,1.359,5.277,2,7.918,2c6.64,0,10.8-4.159,12.16-5.519l27.358-27.36
		c2.724-2.723,7.043-6,12.082-6c4.961,0,9.039,3.117,11.521,5.84l44.238,44.238C336.09,302.164,336.09,310.566,327.931,319.043"/>
	<path clip-path="url(#SVGID_2_)" fill="#FFFFFF" d="M204.571,90.164c20.957,3.52,40,13.442,55.198,28.641
		c15.199,15.199,25.039,34.238,28.642,55.199c0.879,5.282,5.437,8.961,10.64,8.961c0.637,0,1.2-0.082,1.84-0.16
		c5.918-0.961,9.84-6.559,8.879-12.48c-4.319-25.36-16.319-48.481-34.64-66.801c-18.321-18.321-41.442-30.321-66.801-34.641
		c-5.918-0.957-11.438,2.961-12.481,8.801C194.809,83.524,198.648,89.203,204.571,90.164"/>
	<path clip-path="url(#SVGID_2_)" fill="#FFFFFF" d="M378.329,167.203c-7.117-41.757-26.802-79.757-57.039-110
		c-30.238-30.238-68.238-49.917-110-57.039c-5.841-1.039-11.359,2.961-12.398,8.801c-0.961,5.918,2.957,11.442,8.878,12.481
		c37.282,6.32,71.282,24,98.321,50.961c27.039,27.039,44.64,61.039,50.961,98.32c0.879,5.277,5.437,8.957,10.636,8.957
		c0.642,0,1.203-0.078,1.84-0.16C375.372,178.645,379.372,173.043,378.329,167.203"/>
</g>
</svg>
